<?xml version="1.0" encoding="iso-8859-1"?>
<!-- Generator: Adobe Illustrator 14.0.0, SVG Export Plug-In . SVG Version: 6.00 Build 43363)  -->
<!DOCTYPE svg PUBLIC "-//W3C//DTD SVG 1.1//EN" "http://www.w3.org/Graphics/SVG/1.1/DTD/svg11.dtd">
<svg version="1.1" xmlns="http://www.w3.org/2000/svg" xmlns:xlink="http://www.w3.org/1999/xlink" x="0px" y="0px" width="512px"
	 height="512px" viewBox="0 0 512 512" style="enable-background:new 0 0 512 512;" xml:space="preserve">
<g id="Vrstva_2" style="display:none;">
	<rect style="display:inline;fill:#70C7D9;" width="512" height="512"/>
</g>
<g id="Vrstva_1">
	<g>
		<defs>
			<rect id="SVGID_1_" x="-49.248" y="40.167" width="610.496" height="431.667"/>
		</defs>
		<clipPath id="SVGID_2_">
			<use xlink:href="#SVGID_1_"  style="overflow:visible;"/>
		</clipPath>
		<g style="clip-path:url(#SVGID_2_);">
			<path style="fill:#0097A7;" d="M65.3,298.169c-15.299,26.486-30.601,52.982-45.898,79.471
				c15.298,26.488,30.6,52.984,45.898,79.471h91.369c15.439-26.629,30.884-53.266,46.323-79.895
				c-15.298-26.346-30.6-52.701-45.897-79.047H65.3z M68.694,350.355h62.473v42.496H68.694V350.355z M116.722,411.214H83.148
				c0,0-0.902-2.922,3.399-2.975c1.579-0.023,5.25-0.684,6.533-1.859c1.38-1.088,1.116-4.518,1.116-4.518h11.475
				c0,0-0.248,3.736,1.31,4.75c2.452,1.293,4.707,1.537,6.765,1.627C117.465,408.398,116.722,411.214,116.722,411.214z
				 M124.796,400.164c-6.534-0.053-42.656,0.053-49.298,0c-6.64-0.053-6.799-5.525-6.799-5.525h0.424h62.048
				C131.171,394.638,131.33,400.216,124.796,400.164z M155.394,407.388c0,1.807-1.38,3.877-3.823,3.826
				c-2.444-0.055-8.766,0-11.475,0c-3.399,0.051-5.153-2.02-5.1-3.773c0.053-1.752,0-56.998,0-56.998h9.35v45.047
				c0,0,0.052,1.275,0.849,1.275c0.798,0,0.851-1.275,0.851-1.275v-45.047h9.349V407.388z"/>
		</g>
		<g style="clip-path:url(#SVGID_2_);">
			<path style="fill:#0097A7;" d="M112.462,219.333c-0.208-0.006-0.415-0.013-0.624-0.014c-0.182-0.001-0.402-0.002-0.641-0.003
				c-0.24,0.001-0.46,0.002-0.643,0.003c-0.209,0.001-0.416,0.007-0.623,0.014C110.576,219.336,111.815,219.336,112.462,219.333z"/>
			<path style="fill:#0097A7;" d="M112.343,200.634c-0.173-0.005-0.35-0.011-0.513-0.013c-0.178-0.001-0.388-0.002-0.632-0.003
				c-0.244,0.001-0.454,0.002-0.632,0.003c-0.164,0.002-0.341,0.008-0.513,0.013C110.627,200.637,111.767,200.637,112.343,200.634z"
				/>
			<path style="fill:#0097A7;" d="M157.094,131.168H65.299C50,157.657,34.699,184.153,19.401,210.64
				C34.699,237.128,50,263.624,65.299,290.112h91.37c15.44-26.629,30.883-53.267,46.323-79.896
				C187.694,183.869,172.392,157.516,157.094,131.168z M111.197,246.939c-3.052,0-5.525-2.378-5.525-5.313s2.474-5.313,5.525-5.313
				s5.524,2.378,5.524,5.313S114.249,246.939,111.197,246.939z M120.559,233.764c-2.36-2.442-4.88-3.719-8.937-3.825h-0.85
				c-4.064,0.106-6.561,1.383-8.925,3.825c-1.515-1.434-6.376-6.056-7.649-7.224c3.566-4.229,9.164-7.01,15.734-7.207
				c-0.586-0.002-0.677-0.007,0.623-0.014c0.073,0,0.144-0.005,0.217-0.005c0.155,0,0.29,0.001,0.425,0.002
				c0.135-0.001,0.269-0.001,0.424-0.002c0.073,0,0.144,0.004,0.216,0.005c1.31,0.007,1.215,0.011,0.624,0.014
				c6.56,0.197,12.172,2.978,15.734,7.207C126.923,227.708,122.069,232.331,120.559,233.764z M133.721,220.59
				c-9.349-8.394-17.238-9.35-22.099-9.35h-0.85c-4.86,0-12.75,0.956-22.099,9.35c-1.515-1.567-5.446-5.418-7.226-7.225
				c8.715-10.074,21.912-12.546,28.604-12.731c-0.498-0.002-0.566-0.007,0.513-0.013c0.066-0.001,0.143-0.005,0.208-0.005
				c0.155,0,0.291,0.001,0.425,0.002c0.134,0,0.27-0.001,0.425-0.002c0.064,0,0.141,0.004,0.208,0.005
				c1.079,0.006,1.011,0.011,0.513,0.013c6.689,0.186,19.887,2.658,28.603,12.731C139.165,215.172,135.234,219.023,133.721,220.59z
				 M146.896,207.417c-9.35-9.35-21.949-14.451-35.273-14.451h-0.85c-12.759,0-26.004,5.181-35.274,14.451
				c-1.514-1.568-5.444-5.419-7.224-7.226c15.086-15.087,29.686-17.849,42.498-17.849c0.155,0,0.291,0.001,0.425,0.002
				c0.134,0,0.27-0.001,0.425-0.002c11.952,0,28.375,3.728,42.497,17.849C152.339,201.998,148.409,205.848,146.896,207.417z"/>
			<path style="fill:#0097A7;" d="M111.197,182.344C106.038,182.368,116.356,182.368,111.197,182.344L111.197,182.344z"/>
			<path style="fill:#FFFFFF;" d="M111.622,219.315c-0.155,0-0.289,0.001-0.424,0.002c0.239,0.001,0.458,0.002,0.641,0.003
				C111.766,219.319,111.695,219.314,111.622,219.315z"/>
			<path style="fill:#FFFFFF;" d="M111.838,219.32c0.209,0.001,0.416,0.007,0.624,0.014
				C113.053,219.331,113.148,219.327,111.838,219.32z"/>
			<path style="fill:#FFFFFF;" d="M109.933,219.333c0.207-0.006,0.414-0.013,0.623-0.014
				C109.256,219.327,109.347,219.331,109.933,219.333z"/>
			<path style="fill:#FFFFFF;" d="M110.772,219.315c-0.073,0-0.145,0.004-0.217,0.005c0.182-0.001,0.403-0.002,0.643-0.003
				C111.062,219.316,110.928,219.315,110.772,219.315z"/>
			<path style="fill:#FFFFFF;" d="M111.83,200.621c0.164,0.002,0.34,0.008,0.513,0.013
				C112.84,200.632,112.908,200.627,111.83,200.621z"/>
			<path style="fill:#FFFFFF;" d="M111.622,200.616c-0.155,0-0.291,0.001-0.425,0.002c0.244,0.001,0.454,0.002,0.632,0.003
				C111.763,200.62,111.687,200.616,111.622,200.616z"/>
			<path style="fill:#FFFFFF;" d="M110.052,200.634c0.172-0.005,0.35-0.011,0.513-0.013
				C109.485,200.627,109.554,200.632,110.052,200.634z"/>
			<path style="fill:#FFFFFF;" d="M110.772,200.616c-0.064,0-0.141,0.004-0.208,0.005c0.178-0.001,0.388-0.002,0.632-0.003
				C111.063,200.617,110.928,200.616,110.772,200.616z"/>
		</g>
		<g style="clip-path:url(#SVGID_2_);">
			<path style="fill:#0097A7;" d="M301.896,215.17h-91.795c-15.297,26.487-30.6,52.982-45.896,79.471
				c15.297,26.488,30.6,52.984,45.896,79.471h91.371c15.439-26.628,30.885-53.266,46.322-79.895
				C332.496,267.871,317.195,241.517,301.896,215.17z M214.352,246.195h15.3v8.5l-15.3,13.598V246.195z M297.225,348.189
				c0,1.859-0.32,2.549-2.125,2.549h-25.924v-23.372c0-1.382-1.115-2.125-2.125-2.125h-9.35H254.3h-9.35
				c-1.009,0-2.125,0.743-2.125,2.125v23.372h-25.923c-1.807,0-2.126-0.689-2.126-2.549v-52.271l40.799-36.974l0.426-0.426
				l0.426,0.426l40.798,36.974V348.189z M256.426,250.869h-0.851l-52.698,47.173l-5.949-7.224l58.647-52.273h0.851l58.646,52.273
				l-5.949,7.224L256.426,250.869z"/>
		</g>
		<g style="clip-path:url(#SVGID_2_);">
			<path style="fill:#0097A7;" d="M438.781,183.017H361.86v43.772h76.921V183.017z M436.658,225.089h-72.673v-40.373h72.673V225.089
				z"/>
			<path style="fill:#0097A7;" d="M446.007,131.168H354.21c-15.297,26.488-30.599,52.984-45.897,79.472
				c15.299,26.488,30.601,52.983,45.897,79.472h91.372c15.438-26.629,30.883-53.268,46.321-79.896
				C476.606,183.869,461.304,157.516,446.007,131.168z M441.755,229.764h-36.972v5.1c0,0,26.481-0.345,27.199,2.976
				c-0.958,3.134-21.356,3.399-27.199,3.399h-8.5c-6.349,0-26.162-0.373-26.773-3.399c0.876-3.479,26.773-2.976,26.773-2.976v-5.1
				H358.46v-49.722h83.295V229.764z"/>
		</g>
		<g style="clip-path:url(#SVGID_2_);">
			<rect x="383.109" y="350.786" style="fill:#0097A7;" width="33.999" height="54.396"/>
			<path style="fill:#0097A7;" d="M400.108,344.834h0.85c2.126,0,3.824,0.119,3.824-0.85s-1.713-0.85-3.824-0.85h-0.85
				c-2.112,0-4.25-0.119-4.25,0.85S397.982,344.834,400.108,344.834z"/>
			<circle style="fill:#0097A7;" cx="400.321" cy="411.769" r="3.187"/>
			<path style="fill:#0097A7;" d="M446.007,298.299H354.21c-15.298,26.486-30.6,52.982-45.897,79.471
				c15.298,26.488,30.6,52.984,45.897,79.471h91.371c15.439-26.629,30.884-53.266,46.323-79.895
				C476.605,351,461.304,324.645,446.007,298.299z M422.208,412.833c0,2.23-2.205,5.525-5.101,5.525h-16.149h-0.85h-16.999
				c-2.896,0-5.1-3.295-5.1-5.525v-70.123c0-2.604,2.736-5.525,5.524-5.525h16.574h0.85h15.726c2.787,0,5.524,2.922,5.524,5.525
				V412.833z"/>
		</g>
		<g style="clip-path:url(#SVGID_2_);">
			<path style="fill:#0097A7;" d="M301.897,47.998h-91.796c-15.299,26.487-30.601,52.983-45.897,79.472
				c15.297,26.488,30.599,52.983,45.897,79.472h91.372c15.439-26.63,30.884-53.267,46.322-79.896
				C332.497,100.699,317.196,74.344,301.897,47.998z M294.036,159.98h-72.672c-9.773,0-15.3-10.988-15.3-17.424v-1.7
				c0-9.229,8.621-18.456,18.276-17.423c-3.523-6.74,3.095-13.965,8.073-14.025c7.528,0,9.106,2.732,11.475,4.676
				c2.368-12.629,12.142-19.125,21.673-19.125h2.126c10.032,0.062,20.294,9.112,20.9,19.173c0,0,0.471,6.266-1.351,11.001
				c13.781-1.275,18.698,9.35,18.698,16.148v3.4C305.936,153.302,299.621,159.98,294.036,159.98z"/>
		</g>
	</g>
</g>
</svg>
