<?xml version="1.0" encoding="iso-8859-1"?>
<!-- Generator: Adobe Illustrator 14.0.0, SVG Export Plug-In . SVG Version: 6.00 Build 43363)  -->
<!DOCTYPE svg PUBLIC "-//W3C//DTD SVG 1.1//EN" "http://www.w3.org/Graphics/SVG/1.1/DTD/svg11.dtd">
<svg version="1.1" xmlns="http://www.w3.org/2000/svg" xmlns:xlink="http://www.w3.org/1999/xlink" x="0px" y="0px" width="32px"
	 height="32px" viewBox="0 0 32 32" style="enable-background:new 0 0 32 32;" xml:space="preserve">
<g id="Pozad&#xED;_-_zaoblen&#xFD;_obd&#xE9;ln&#xED;k" style="display:none;">
	<path id="okraje" style="fill-rule:evenodd;clip-rule:evenodd;fill:#00BCD4;" d="M578.583-156.132
		c0,19.725-15.99,35.715-35.721,35.715H257.135c-19.728,0-35.718-15.99-35.718-35.715v-285.733c0-19.728,15.99-35.718,35.718-35.718
		h285.728c19.73,0,35.721,15.99,35.721,35.718V-156.132z"/>
	<path style="fill-rule:evenodd;clip-rule:evenodd;fill:#00BCD4;" d="M614.062-128.029c0,23.643-19.167,42.809-42.817,42.809
		H228.752c-23.646,0-42.813-19.166-42.813-42.809v-342.5c0-23.647,19.167-42.813,42.813-42.813h342.492
		c23.65,0,42.817,19.167,42.817,42.813V-128.029z"/>
	<polygon id="Uhelnik" style="display:inline;fill-rule:evenodd;clip-rule:evenodd;fill:#00BCD4;" points="293.803,-115.063 
		187.605,-299 293.803,-482.939 506.197,-482.939 612.395,-299 506.197,-115.063 	"/>
	<polygon id="Uhelnik_-_okraj" style="display:inline;fill-rule:evenodd;clip-rule:evenodd;fill:#00BCD4;" points="
		310.811,-144.521 221.622,-299 310.811,-453.48 489.189,-453.48 578.379,-299 489.189,-144.521 	"/>
</g>
<g id="_x24_ic_x5F_menu_x5F_dashboard">
	<g style="opacity:0.5;">
		<path d="M25.144,3.047H6.856c-2.104,0-3.81,1.705-3.81,3.809v18.289c0,2.104,1.706,3.809,3.81,3.809h18.287
			c2.104,0,3.81-1.705,3.81-3.809V6.855C28.953,4.752,27.248,3.047,25.144,3.047z M12.788,5.094c0.487,0,0.883,0.396,0.883,0.882
			c0,0.488-0.396,0.884-0.883,0.884s-0.882-0.396-0.882-0.884C11.906,5.489,12.301,5.094,12.788,5.094z M10.141,5.094
			c0.487,0,0.882,0.396,0.882,0.882c0,0.488-0.395,0.884-0.882,0.884c-0.488,0-0.882-0.396-0.882-0.884
			C9.259,5.489,9.653,5.094,10.141,5.094z M7.211,5.094c0.487,0,0.883,0.396,0.883,0.882c0,0.488-0.396,0.884-0.883,0.884
			c-0.487,0-0.882-0.396-0.882-0.884C6.329,5.489,6.725,5.094,7.211,5.094z M25.988,23.446c0,1.403-1.315,2.542-2.937,2.542H8.949
			c-1.622,0-2.937-1.139-2.937-2.542V11.237c0-1.404,1.315-2.544,2.937-2.544h14.103c1.622,0,2.937,1.14,2.937,2.544V23.446z"/>
		<rect x="10.6" y="17.165" width="2.647" height="6.847"/>
		<rect x="14.694" y="11.447" width="2.647" height="12.564"/>
		<rect x="18.647" y="15.611" width="2.647" height="8.4"/>
	</g>
</g>
<g id="_x24_ic_x5F_menu_x5F_overview">
	<g style="opacity:0.5;">
		<g id="SPLINE_1_">
			<path d="M15.906,8.113l-9.014,8.168l0,0c0,0,0,11.137,0,11.549l0,0c0,0.41,0.071,0.563,0.47,0.563l0,0c0.399,0,5.727,0,5.727,0
				l0,0c0,0,0-4.799,0-5.164l0,0c0-0.305,0.247-0.469,0.47-0.469l0,0c0.153,0,2.064,0,2.064,0l0,0h0.752l0,0c0,0,1.913,0,2.065,0
				l0,0c0.223,0,0.47,0.164,0.47,0.469l0,0c0,0.365,0,5.164,0,5.164l0,0c0,0,5.328,0,5.727,0l0,0c0.399,0,0.47-0.152,0.47-0.563l0,0
				c0-0.412,0-11.549,0-11.549l0,0l-9.014-8.168l0,0L16,8.02l0,0L15.906,8.113"/>
		</g>
		<g id="POLYLINE">
			<polyline points="16.094,3.607 29.05,15.156 27.736,16.752 16.094,6.33 15.906,6.33 4.264,16.752 2.95,15.156 15.906,3.607 
				16.094,3.607 			"/>
		</g>
		<g id="POLYLINE_1_">
			<polyline points="6.799,5.297 10.179,5.297 10.179,7.174 6.799,10.178 6.799,5.297 			"/>
		</g>
	</g>
</g>
<g id="_x24_ic_x5F_menu_x5F_watchdog">
	<g id="Rounded_Rectangle_1" style="opacity:0.502;">
		<g>
			<path d="M25.148,11.381l0.981-3.841l-2.979-4.3l-3.854,5.307l-2.468-0.171l1.317,2.205l-0.921,1.524l2.712,1l-0.007,0.02
				l3.798,1.359l0.021-0.058l-0.003,0.082l0.709,0.262l4.312-3.949L25.148,11.381z M21.273,9.104c-0.274,0-0.497-0.219-0.497-0.489
				s0.223-0.49,0.497-0.49c0.275,0,0.497,0.22,0.497,0.49S21.548,9.104,21.273,9.104z M6.222,13.219
				c-0.145,0-0.282,0.027-0.414,0.067l-1.464-1.313c-0.271-0.243-0.69-0.224-0.936,0.043c-0.247,0.267-0.227,0.679,0.043,0.923
				l1.421,1.274c-0.04,0.129-0.068,0.264-0.068,0.406v12.508c0,0.901,0.742,1.633,1.657,1.633c0.916,0,1.658-0.731,1.658-1.633
				v-4.571h11.796v4.507c0,0.9,0.741,1.631,1.656,1.631c0.916,0,1.657-0.73,1.657-1.631v-4.877c0.283-0.256,0.464-0.621,0.464-1.03
				v-5.456l-6.892-2.48H6.222z"/>
		</g>
	</g>
	
		<image style="overflow:visible;" width="96" height="96" id="_x23__xA0_Obraz" xlink:href="59B6EF98.png"  transform="matrix(0.29 0 0 0.29 2.0786 2.0781)">
	</image>
	<g id="_x23__xA0_O&#x159;ezov&#xE1;_cesta">
		<rect x="2.079" y="2.078" style="fill:none;" width="27.843" height="27.844"/>
	</g>
</g>
</svg>
